<mxfile host="app.diagrams.net" agent="Mozilla/5.0 (Macintosh; Intel Mac OS X 10_15_7) AppleWebKit/537.36 (KHTML, like Gecko) Chrome/130.0.0.0 Safari/537.36" version="24.8.3">
  <diagram name="第 1 页" id="6heb7sNHQ7j2po0P_p5Y">
    <mxGraphModel dx="1750" dy="1121" grid="1" gridSize="10" guides="1" tooltips="1" connect="1" arrows="1" fold="1" page="1" pageScale="1" pageWidth="827" pageHeight="1169" math="0" shadow="0">
      <root>
        <mxCell id="0" />
        <mxCell id="1" parent="0" />
        <mxCell id="gZfwDUes0kBBxxWIYHWV-2" value="" style="verticalLabelPosition=bottom;html=1;verticalAlign=top;align=center;shape=mxgraph.floorplan.wallCorner;fillColor=strokeColor;" vertex="1" parent="1">
          <mxGeometry x="240" y="190" width="240" height="580" as="geometry" />
        </mxCell>
        <mxCell id="gZfwDUes0kBBxxWIYHWV-3" value="" style="verticalLabelPosition=bottom;html=1;verticalAlign=top;align=center;shape=mxgraph.floorplan.wallCorner;fillColor=strokeColor;direction=south;" vertex="1" parent="1">
          <mxGeometry x="570" y="190" width="160" height="580" as="geometry" />
        </mxCell>
        <mxCell id="gZfwDUes0kBBxxWIYHWV-4" value="" style="verticalLabelPosition=bottom;html=1;verticalAlign=top;align=center;shape=mxgraph.floorplan.wallCorner;fillColor=strokeColor;direction=south;" vertex="1" parent="1">
          <mxGeometry x="560" y="150" width="10" height="50" as="geometry" />
        </mxCell>
        <mxCell id="gZfwDUes0kBBxxWIYHWV-5" value="" style="verticalLabelPosition=bottom;html=1;verticalAlign=top;align=center;shape=mxgraph.floorplan.wallCorner;fillColor=strokeColor;" vertex="1" parent="1">
          <mxGeometry x="480" y="150" width="40" height="50" as="geometry" />
        </mxCell>
        <mxCell id="gZfwDUes0kBBxxWIYHWV-6" value="" style="verticalLabelPosition=bottom;html=1;verticalAlign=top;align=center;shape=mxgraph.floorplan.doorRight;aspect=fixed;rotation=-180;" vertex="1" parent="1">
          <mxGeometry x="521.14" y="119" width="37.65" height="40" as="geometry" />
        </mxCell>
        <mxCell id="gZfwDUes0kBBxxWIYHWV-7" value="" style="verticalLabelPosition=bottom;html=1;verticalAlign=top;align=center;shape=mxgraph.floorplan.wall;fillColor=strokeColor;" vertex="1" parent="1">
          <mxGeometry x="240" y="770" width="250" height="10" as="geometry" />
        </mxCell>
        <mxCell id="gZfwDUes0kBBxxWIYHWV-8" value="" style="verticalLabelPosition=bottom;html=1;verticalAlign=top;align=center;shape=mxgraph.floorplan.wallCorner;fillColor=strokeColor;direction=west" vertex="1" parent="1">
          <mxGeometry x="330" y="200" width="55" height="200" as="geometry" />
        </mxCell>
        <mxCell id="gZfwDUes0kBBxxWIYHWV-9" value="" style="verticalLabelPosition=bottom;html=1;verticalAlign=top;align=center;shape=mxgraph.floorplan.wallCorner;fillColor=strokeColor;direction=south;" vertex="1" parent="1">
          <mxGeometry x="330" y="480" width="55" height="290" as="geometry" />
        </mxCell>
        <mxCell id="gZfwDUes0kBBxxWIYHWV-10" value="" style="verticalLabelPosition=bottom;html=1;verticalAlign=top;align=center;shape=mxgraph.floorplan.doorRight;aspect=fixed;" vertex="1" parent="1">
          <mxGeometry x="300" y="480" width="30" height="31.88" as="geometry" />
        </mxCell>
        <mxCell id="gZfwDUes0kBBxxWIYHWV-11" value="" style="verticalLabelPosition=bottom;html=1;verticalAlign=top;align=center;shape=mxgraph.floorplan.doorRight;aspect=fixed;rotation=-180;" vertex="1" parent="1">
          <mxGeometry x="300" y="368.12" width="30" height="31.88" as="geometry" />
        </mxCell>
        <mxCell id="gZfwDUes0kBBxxWIYHWV-12" value="" style="verticalLabelPosition=bottom;html=1;verticalAlign=top;align=center;shape=mxgraph.floorplan.wall;fillColor=strokeColor;" vertex="1" parent="1">
          <mxGeometry x="250" y="390" width="50" height="10" as="geometry" />
        </mxCell>
        <mxCell id="gZfwDUes0kBBxxWIYHWV-13" value="" style="verticalLabelPosition=bottom;html=1;verticalAlign=top;align=center;shape=mxgraph.floorplan.wall;fillColor=strokeColor;" vertex="1" parent="1">
          <mxGeometry x="250" y="428.88" width="50" height="110" as="geometry" />
        </mxCell>
        <mxCell id="gZfwDUes0kBBxxWIYHWV-14" value="" style="verticalLabelPosition=bottom;html=1;verticalAlign=top;align=center;shape=mxgraph.floorplan.bed_double;rotation=90;" vertex="1" parent="1">
          <mxGeometry x="522.14" y="527.14" width="150" height="238.57" as="geometry" />
        </mxCell>
        <mxCell id="gZfwDUes0kBBxxWIYHWV-15" value="" style="verticalLabelPosition=bottom;html=1;verticalAlign=top;align=center;shape=mxgraph.floorplan.dresser;rotation=-90;" vertex="1" parent="1">
          <mxGeometry x="680" y="721" width="30" height="48" as="geometry" />
        </mxCell>
        <mxCell id="gZfwDUes0kBBxxWIYHWV-16" value="" style="verticalLabelPosition=bottom;html=1;verticalAlign=top;align=center;shape=mxgraph.floorplan.dresser;rotation=90;" vertex="1" parent="1">
          <mxGeometry x="335" y="255" width="150" height="45" as="geometry" />
        </mxCell>
        <mxCell id="gZfwDUes0kBBxxWIYHWV-18" value="" style="verticalLabelPosition=bottom;html=1;verticalAlign=top;align=center;shape=mxgraph.floorplan.desk_corner_2;rotation=90;" vertex="1" parent="1">
          <mxGeometry x="566.5" y="244.5" width="193" height="110" as="geometry" />
        </mxCell>
        <mxCell id="gZfwDUes0kBBxxWIYHWV-19" value="" style="verticalLabelPosition=bottom;html=1;verticalAlign=top;align=center;shape=mxgraph.floorplan.chair;rotation=-90;" vertex="1" parent="1">
          <mxGeometry x="609.5" y="264" width="41" height="52" as="geometry" />
        </mxCell>
        <mxCell id="gZfwDUes0kBBxxWIYHWV-31" value="" style="verticalLabelPosition=bottom;html=1;verticalAlign=top;align=center;shape=mxgraph.floorplan.toilet;rotation=-90;" vertex="1" parent="1">
          <mxGeometry x="268.01" y="223" width="38.3" height="51.32" as="geometry" />
        </mxCell>
        <mxCell id="gZfwDUes0kBBxxWIYHWV-32" value="" style="verticalLabelPosition=bottom;html=1;verticalAlign=top;align=center;shape=mxgraph.floorplan.sink_22;rotation=-90;" vertex="1" parent="1">
          <mxGeometry x="260" y="298" width="40" height="35" as="geometry" />
        </mxCell>
        <mxCell id="gZfwDUes0kBBxxWIYHWV-34" value="" style="verticalLabelPosition=bottom;html=1;verticalAlign=top;align=center;shape=mxgraph.floorplan.workstation;rotation=90;" vertex="1" parent="1">
          <mxGeometry x="670" y="270" width="50" height="40" as="geometry" />
        </mxCell>
        <mxCell id="gZfwDUes0kBBxxWIYHWV-35" value="鞋架" style="text;html=1;align=center;verticalAlign=middle;whiteSpace=wrap;rounded=0;rotation=-90;" vertex="1" parent="1">
          <mxGeometry x="475.82000000000005" y="166" width="56.35" height="30" as="geometry" />
        </mxCell>
        <mxCell id="gZfwDUes0kBBxxWIYHWV-37" value="衣柜" style="text;html=1;align=center;verticalAlign=middle;whiteSpace=wrap;rounded=0;rotation=-90;" vertex="1" parent="1">
          <mxGeometry x="382.58" y="264" width="60" height="30" as="geometry" />
        </mxCell>
        <mxCell id="gZfwDUes0kBBxxWIYHWV-38" value="" style="verticalLabelPosition=bottom;html=1;verticalAlign=top;align=center;shape=mxgraph.floorplan.windowGarden;dx=0.25;rotation=-180;" vertex="1" parent="1">
          <mxGeometry x="482.52" y="780" width="144.52" height="30" as="geometry" />
        </mxCell>
        <mxCell id="gZfwDUes0kBBxxWIYHWV-39" value="" style="verticalLabelPosition=bottom;html=1;verticalAlign=top;align=center;shape=mxgraph.floorplan.wall;fillColor=strokeColor;" vertex="1" parent="1">
          <mxGeometry x="620" y="769" width="110" height="10" as="geometry" />
        </mxCell>
        <mxCell id="gZfwDUes0kBBxxWIYHWV-40" value="" style="endArrow=none;dashed=1;html=1;dashPattern=1 3;strokeWidth=2;rounded=0;entryX=0.049;entryY=1;entryDx=0;entryDy=0;entryPerimeter=0;exitX=0.962;exitY=1.067;exitDx=0;exitDy=0;exitPerimeter=0;" edge="1" parent="1" source="gZfwDUes0kBBxxWIYHWV-38" target="gZfwDUes0kBBxxWIYHWV-38">
          <mxGeometry width="50" height="50" relative="1" as="geometry">
            <mxPoint x="510" y="780" as="sourcePoint" />
            <mxPoint x="560" y="730" as="targetPoint" />
          </mxGeometry>
        </mxCell>
        <mxCell id="gZfwDUes0kBBxxWIYHWV-41" value="" style="verticalLabelPosition=bottom;html=1;verticalAlign=top;align=center;shape=mxgraph.floorplan.doorAccordion;dx=0.93;rotation=-90;" vertex="1" parent="1">
          <mxGeometry x="363" y="735.03" width="59.88" height="10" as="geometry" />
        </mxCell>
        <mxCell id="gZfwDUes0kBBxxWIYHWV-42" value="160cm" style="shape=dimension;direction=west;whiteSpace=wrap;html=1;align=center;points=[];verticalAlign=top;spacingTop=-15;labelBackgroundColor=none;rotation=90;" vertex="1" parent="1">
          <mxGeometry x="652.5" y="279.5" width="195" height="40" as="geometry" />
        </mxCell>
        <mxCell id="gZfwDUes0kBBxxWIYHWV-43" value="洗衣机" style="text;html=1;align=center;verticalAlign=middle;whiteSpace=wrap;rounded=0;rotation=-90;" vertex="1" parent="1">
          <mxGeometry x="239.99999999999997" y="420" width="60" height="30" as="geometry" />
        </mxCell>
        <mxCell id="gZfwDUes0kBBxxWIYHWV-44" value="厨房" style="text;html=1;align=center;verticalAlign=middle;whiteSpace=wrap;rounded=0;rotation=-90;" vertex="1" parent="1">
          <mxGeometry x="280" y="600" width="60" height="30" as="geometry" />
        </mxCell>
        <mxCell id="gZfwDUes0kBBxxWIYHWV-45" value="150cm" style="shape=dimension;direction=west;whiteSpace=wrap;html=1;align=center;points=[];verticalAlign=top;spacingTop=-15;labelBackgroundColor=none;rotation=90;" vertex="1" parent="1">
          <mxGeometry x="674.41" y="626.03" width="151.37" height="41.83" as="geometry" />
        </mxCell>
        <mxCell id="gZfwDUes0kBBxxWIYHWV-46" value="140cm" style="shape=dimension;direction=west;whiteSpace=wrap;html=1;align=center;points=[];verticalAlign=top;spacingTop=-15;labelBackgroundColor=none;rotation=90;" vertex="1" parent="1">
          <mxGeometry x="665.63" y="463.88" width="168.75" height="40" as="geometry" />
        </mxCell>
        <mxCell id="gZfwDUes0kBBxxWIYHWV-47" value="120cm" style="shape=dimension;direction=west;whiteSpace=wrap;html=1;align=center;points=[];verticalAlign=top;spacingTop=-15;labelBackgroundColor=none;" vertex="1" parent="1">
          <mxGeometry x="570" y="150" width="160" height="40" as="geometry" />
        </mxCell>
        <mxCell id="gZfwDUes0kBBxxWIYHWV-50" value="" style="group" vertex="1" connectable="0" parent="1">
          <mxGeometry x="394" y="362" width="30" height="30" as="geometry" />
        </mxCell>
        <mxCell id="gZfwDUes0kBBxxWIYHWV-17" value="" style="verticalLabelPosition=bottom;html=1;verticalAlign=top;align=center;shape=mxgraph.floorplan.flat_tv;rotation=-90;" vertex="1" parent="gZfwDUes0kBBxxWIYHWV-50">
          <mxGeometry x="-10" y="10" width="30" height="10" as="geometry" />
        </mxCell>
        <mxCell id="gZfwDUes0kBBxxWIYHWV-36" value="镜子" style="text;html=1;align=center;verticalAlign=middle;whiteSpace=wrap;rounded=0;rotation=-90;" vertex="1" parent="gZfwDUes0kBBxxWIYHWV-50">
          <mxGeometry x="5" y="5" width="30" height="20" as="geometry" />
        </mxCell>
      </root>
    </mxGraphModel>
  </diagram>
</mxfile>
